# xmcd
#
# Track frame offsets: 
#        150
#        19012
#        37557
#        58434
#        76093
#        96858
#        111986
#        129810
#        148296
#        170347
#        190793
#
# Disc length: 2895 seconds
#
# Revision: 0
# Processed by: cddbd v1.5.2PL0 Copyright (c) Steve Scherf et al.
# Submitted via: ExactAudioCopy v0.95b4
#
DISCID=890b4d0b
DTITLE=Sell, Barry - Shooting Star Blues
DYEAR=2000
DGENRE=Country
TTITLE0=Mansions and Deserts
TTITLE1=California
TTITLE2=Light At The End Of This Tunnel
TTITLE3=The Fastest Train
TTITLE4=Gone Too Long
TTITLE5=(she put my) Heart On Blocks
TTITLE6=Shooting Star Blues
TTITLE7=Foghorn
TTITLE8=Maria
TTITLE9=Caffeine Addict
TTITLE10=Crashing Waves
EXTD=
EXTT0=
EXTT1=
EXTT2=
EXTT3=
EXTT4=
EXTT5=
EXTT6=
EXTT7=
EXTT8=
EXTT9=
EXTT10=
PLAYORDER=
